<svg viewBox="0 0 440 312" xmlns="http://www.w3.org/2000/svg" role="img" color="#d1d4e5" height="307" width="435" data-test="svg-dispersedAssets"><g fill="none" fill-rule="evenodd" clip-rule="evenodd"><circle cx="221" cy="144" r="44" fill="#F7941D"></circle><path d="M240.77 138.555c.863-5.764-3.529-8.863-9.529-10.931l1.947-7.81-4.752-1.183-1.898 7.604a171.539 171.539 0 0 0-3.729-.878l-.079-.018 1.911-7.654-4.752-1.185-1.947 7.807-.208-.047c-.962-.22-1.91-.437-2.828-.668l.005-.024-6.556-1.637-1.265 5.077s3.529.808 3.454.858c1.925.481 2.272 1.754 2.214 2.766l-2.216 8.897c.132.033.302.082.495.156l-.504-.123-3.107 12.463c-.237.583-.833 1.46-2.181 1.127.05.069-3.454-.861-3.454-.861l-2.359 5.44 6.187 1.543c.665.166 1.322.338 1.972.508l1.413.366-1.966 7.898 4.749 1.183 1.947-7.81c1.298.349 2.558.673 3.79.981l-1.942 7.777 4.752 1.183 1.967-7.882c8.107 1.535 14.201.916 16.766-6.415 2.068-5.902-.101-9.309-4.367-11.528 3.108-.715 5.445-2.759 6.07-6.98Zm-10.863 15.23c-1.344 5.416-9.821 3.177-13.702 2.152a55.244 55.244 0 0 0-.928-.241l2.613-10.464c.325.081.722.17 1.172.272 4.013.901 12.227 2.746 10.845 8.281Zm-10.039-13.139c3.233.864 10.283 2.746 11.51-2.176 1.256-5.035-5.598-6.551-8.945-7.291-.378-.084-.71-.157-.982-.225l-2.365 9.487c.224.056.487.127.782.205Z" fill="#fff"></path><circle cx="250" cy="278" r="32" fill="#3C3C3D"></circle><circle cx="250" cy="278" r="31.5" stroke="#000" stroke-opacity="0.02"></circle><path d="m249.197 285.321 11.995-6.967-11.995-19.55-11.997 19.55 11.997 6.967Zm12.003-4.731-12.003 16.606L237.2 280.59l11.997 6.961 12.003-6.961Z" fill="#fff"></path><path d="M189 36c0 19.33-15.67 35-35 35s-35-15.67-35-35 15.67-35 35-35 35 15.67 35 35Z" fill="#112840"></path><path d="M152.992 16.418c-.665-.615-.447-1.83.406-2.162l-.002-.002c1.05-.538 2.33.711 1.772 1.741-.324.838-1.549 1.063-2.176.423Zm-10.995.966c-.859-.328-.761-1.702.125-1.933.636-.258 1.444.315 1.378 1 .068.739-.853 1.283-1.503.933Zm23.221.02c.678.17 1.181-.372 1.338-.962-.109-.694-.792-1.361-1.533-1.007-.958.31-.801 1.85.195 1.97Zm-20.76 5.419c-.905-.652-.768-2.149.23-2.652 1.063-.663 2.583.324 2.419 1.542-.054 1.228-1.713 1.94-2.649 1.11Zm16.483-1.947c-.593 1.172.604 2.515 1.866 2.283.951-.31 1.61-1.441 1.074-2.353-.54-1.173-2.465-1.136-2.94.07Zm-7.615 4.103c-.728-.352-1.343-1.043-1.286-1.887-.011-1.037.947-1.807 1.949-1.88.663.132 1.385.412 1.669 1.068.532.91.059 2.161-.899 2.577-.371.204-.8.17-1.213.138a11.384 11.384 0 0 0-.22-.016Zm-18.055-.378c-.849.383-.967 1.676-.219 2.214.704.573 1.934.207 2.135-.692.37-1.039-.943-2.113-1.916-1.524v.002Zm36.157 2.27c-.901-.398-.995-1.763-.147-2.274v.002c.825-.632 2.186.092 2.087 1.115.057.934-1.122 1.639-1.94 1.158Zm-14.672-.413c-1.697.508-2.703 2.533-2.012 4.152.608 1.81 3.012 2.65 4.659 1.658 1.586-.838 2.131-3.062 1.107-4.521-.774-1.195-2.393-1.772-3.754-1.289Zm-9.504 4.487c-.834-1.536-.094-3.62 1.513-4.327 1.51-.702 3.542-.114 4.27 1.404.858 1.479.195 3.537-1.338 4.3-1.536.86-3.702.209-4.445-1.377Zm-6.486-1.639c-.221 1.125.798 2.267 1.964 2.166 1.059.006 1.831-.954 1.897-1.936a2.14 2.14 0 0 0-1.904-1.875c-.925.066-1.841.69-1.957 1.645Zm23.487 1.829c-1.236-.7-1.142-2.669.142-3.264 1.197-.684 2.857.31 2.804 1.663.081 1.433-1.756 2.441-2.946 1.601Zm-18.736 1.783c-1.899.45-3.01 2.747-2.096 4.46.799 1.868 3.557 2.42 5.053 1.05 1.169-.934 1.475-2.704.724-3.977-.686-1.264-2.285-1.912-3.683-1.533h.002Zm13.234 4.578c-1.004-1.686.007-4.07 1.919-4.585 1.358-.383 2.955.131 3.686 1.35.967 1.393.505 3.474-.932 4.373-1.507 1.041-3.841.494-4.673-1.138ZM136.52 34.5c-1.16.324-1.503 1.978-.573 2.72.794.791 2.331.393 2.631-.679.488-1.179-.851-2.49-2.058-2.04Zm33.663 2.888c-.475-.236-.717-.718-.919-1.177a1.829 1.829 0 0 1 1.724-1.912c.827.13 1.632.785 1.566 1.674.077 1.17-1.356 1.964-2.371 1.415Zm-39.602-2.306c-.602.27-.862 1.072-.425 1.595.495.75 1.844.405 1.882-.494.168-.794-.731-1.414-1.457-1.1Zm46.34 1.884c-1.033.092-1.368-1.455-.514-1.903.511-.357 1.332-.101 1.535.487.344.644-.286 1.525-1.021 1.416Zm-27.458 2.412c-1.43.307-2.533 1.643-2.529 3.083-.05 1.502 1.138 2.938 2.652 3.178 1.957.45 3.981-1.284 3.856-3.242-.011-1.938-2.067-3.506-3.981-3.019h.002Zm5.193 2.36c.254-1.148 1.23-2.082 2.38-2.362h.002c1.939-.533 4.056 1.063 4.025 3.045.103 1.92-1.859 3.599-3.775 3.218-1.805-.23-3.135-2.179-2.632-3.9Zm-12.223-1.17c-1.451.145-2.216 2.063-1.193 3.111.875 1.094 2.853.73 3.251-.608.545-1.253-.715-2.728-2.056-2.502h-.002Zm21.85 3.42c-1.327-.735-1.085-2.908.361-3.36 1.199-.493 2.669.525 2.577 1.804.048 1.407-1.767 2.378-2.938 1.556Zm6.57 2.765c.317.87 1.64 1.078 2.224.35.406-.37.335-.93.272-1.42l-.011-.09-.047-.047c-.296-.304-.625-.642-1.084-.633-.972-.16-1.823.98-1.354 1.84Zm-35.646.66c-.835-.474-.805-1.829.059-2.262v.003c.908-.596 2.214.29 2.008 1.334-.107.923-1.288 1.45-2.067.925Zm17.981-.33c-1.43.453-1.645 2.61-.356 3.342 1.161.854 3.034-.13 2.944-1.553.114-1.286-1.4-2.303-2.588-1.79Zm-9.316 3.636c.013-.694.304-1.468 1.017-1.73 1.011-.524 2.367.38 2.275 1.495.031.915-.875 1.694-1.794 1.558-.759-.015-1.253-.687-1.498-1.323Zm17.83-1.713c-1.015.51-1.129 2.05-.192 2.69.969.818 2.64.022 2.614-1.225.098-1.19-1.381-2.1-2.422-1.465Zm4.874 6.693c-.09.932-1.474 1.217-1.949.416v.002c-.464-.689.081-1.518.833-1.675.604.12 1.243.566 1.116 1.257Zm-25.161-.181c.066.785.937 1.465 1.685.969.833-.438.551-1.848-.401-1.914-.654-.142-1.1.4-1.284.945Zm12.552 2.327c-.886.103-1.686-.883-1.352-1.7h-.002c.184-.806 1.245-1.2 1.945-.771.46.195.597.697.715 1.128l.002.009c-.063.225-.12.453-.175.678-.286.333-.656.667-1.133.656Z" fill="#fff"></path><circle cx="283" cy="54" r="26" fill="#2A323A"></circle><path d="M292.191 43.6h3.76l-7.824 7.947a7.171 7.171 0 0 1-10.255 0l-7.824-7.947h3.76l5.944 6.037a4.542 4.542 0 0 0 6.495 0l5.944-6.037ZM273.76 65.7H270l7.872-7.997a7.173 7.173 0 0 1 10.256 0L296 65.7h-3.761l-5.991-6.087a4.543 4.543 0 0 0-6.496 0L273.76 65.7Z" fill="#fff"></path><path d="M377 142c-11.046 0-20-8.954-20-20s8.954-20 20-20 20 8.954 20 20-8.954 20-20 20Z" fill="#C2A633"></path><path d="M377.092 128.553h-2.985v-5.611h4.477v-2.35h-4.477v-5.611h2.846c1.064 0 6.42.428 6.429 7.043.008 6.615-5.523 6.529-6.29 6.529Zm-.857-17.552h-6.192v9.592H367.5v2.349h2.543v9.591H377.258s10.143.85 10.143-10.586c0-11.25-9.702-10.946-11.166-10.946Z" fill="#fff"></path><path d="M393 280c-17.674 0-32-14.326-32-32s14.326-32 32-32 32 14.326 32 32-14.326 32-32 32Z" fill="#2B2B2B"></path><path d="m402.92 237.558 5.009-2.552 5.871-2.995v3.594l-5.922 3.018-2.866 1.459-25.499 12.993-1.42.723-1.442.736-4.451 2.268v-3.595l1.512-.771a3.203 3.203 0 0 0 1.739-3.094 17.6 17.6 0 0 1 27.888-15.585l-.428.218-2.867 1.461a14.41 14.41 0 0 0-21.436 12.561 14.6 14.6 0 0 0 .124 1.881l24.188-12.32Zm-21.958 18.364 32.838-16.72v3.583l-1.513.771a3.205 3.205 0 0 0-1.738 3.094 17.599 17.599 0 0 1-27.889 15.589l3.108-1.584.176-.093a14.412 14.412 0 0 0 21.457-12.56c0-.633-.042-1.266-.123-1.894l-24.213 12.338-5.009 2.552-5.856 2.983v-3.592l5.896-3.004 2.866-1.463Z" fill="#fff"></path><path d="M156.004 209.037c-8.829 0-15.98 7.151-15.98 15.979s7.151 15.979 15.98 15.979c8.821 0 15.979-7.151 15.979-15.979s-7.158-15.979-15.979-15.979Z" fill="#E6007A"></path><path d="M155.999 218.498c2.203 0 3.989-1.051 3.989-2.349 0-1.297-1.786-2.349-3.989-2.349-2.202 0-3.988 1.052-3.988 2.349 0 1.298 1.786 2.349 3.988 2.349ZM155.999 236.198c2.203 0 3.989-1.051 3.989-2.349 0-1.297-1.786-2.349-3.989-2.349-2.202 0-3.988 1.052-3.988 2.349 0 1.298 1.786 2.349 3.988 2.349ZM150.441 221.75c1.101-1.932 1.094-4.024-.016-4.673s-2.903.39-4.005 2.322c-1.101 1.932-1.094 4.024.016 4.673 1.11.65 2.903-.39 4.005-2.322ZM165.577 230.599c1.101-1.932 1.095-4.024-.015-4.672-1.109-.649-2.902.391-4.003 2.323-1.102 1.932-1.095 4.024.014 4.672 1.11.649 2.902-.391 4.004-2.323ZM150.425 232.922c1.111-.649 1.118-2.742.016-4.674-1.101-1.931-2.894-2.971-4.004-2.322-1.111.649-1.118 2.741-.016 4.673 1.101 1.932 2.894 2.972 4.004 2.323ZM165.563 224.073c1.11-.649 1.116-2.741.015-4.672-1.102-1.932-2.894-2.972-4.004-2.324-1.109.649-1.116 2.741-.014 4.673 1.101 1.931 2.894 2.972 4.003 2.323Z" fill="#fff"></path><path d="M52 219c6.4 0 12.48 1.92 17.76 5.44 5.28 3.52 9.44 8.48 11.84 14.4a31.4 31.4 0 0 1 1.76 18.4c-1.28 6.24-4.32 11.84-8.8 16.32s-10.24 7.52-16.32 8.8c-6.24 1.28-12.64.64-18.56-1.76-5.92-2.4-10.88-6.56-14.4-11.84C21.92 263.48 20 257.4 20 251c0-8.48 3.36-16.64 9.44-22.56C35.36 222.36 43.52 219 52 219Z" fill="#000"></path><path d="M60.971 236.61v9.026h-18.01v-9.026h-4.193v28.744h4.216v-8.994h18.01v9.007h4.216V236.61h-4.239Zm0 16.673h-18.01v-4.593h18.01v4.593Z" fill="#fff"></path><circle cx="52" cy="251" r="32" stroke="#000" stroke-opacity="0.02"></circle><path d="M80 172c-15.464 0-28-12.536-28-28s12.536-28 28-28 28 12.536 28 28-12.536 28-28 28Z" fill="#06C"></path><path d="M66.062 137.615h19.155s6.612-.06 2.039 8.214c0 0-3.337 6.476-11.617 6.356l4.468-11.055a.871.871 0 0 0-.514-1.139.93.93 0 0 0-.313-.061l-5.865-.097L66 157.341s2.472.24 3.831.12l-.742 1.799h3.504a.474.474 0 0 0 .442-.297l.627-1.622 1.483-.12-.865 2.039h3.41a.618.618 0 0 0 .576-.38l.959-2.378s10.38-1.679 15.076-9.833c0 0 6.303-9.474-1.112-12.832a14.71 14.71 0 0 0-4.572-1.199l.872-2.07a.407.407 0 0 0-.233-.537.424.424 0 0 0-.161-.031h-3.198l-.989 2.518h-1.36l.768-1.956a.411.411 0 0 0-.248-.535.442.442 0 0 0-.152-.027h-3.213l-.99 2.518H69.73a1.482 1.482 0 0 0-1.308.762l-2.36 4.335Z" fill="#fff"></path><circle cx="20" cy="60" r="20" fill="#A5A8A9"></circle><path d="m20.193 61.106-1.59 5.366h8.506a.436.436 0 0 1 .418.558l-.74 2.548a.584.584 0 0 1-.562.422H13.233l2.197-7.419-2.43.74.536-1.734 2.434-.74 3.084-10.422a.58.58 0 0 1 .558-.425h3.292a.437.437 0 0 1 .421.555l-2.588 8.813 2.43-.74-.522 1.764-2.452.714Z" fill="#fff"></path><path d="M316 211c13.255 0 24-10.745 24-24s-10.745-24-24-24-24 10.745-24 24 10.745 24 24 24Z" fill="#E84142"></path><path d="M303.83 197h5.32a6.654 6.654 0 0 0 1.83-.13 2.997 2.997 0 0 0 1.23-.71 6.62 6.62 0 0 0 1-1.54l7-12.2a6.67 6.67 0 0 0 .79-1.64c.12-.462.12-.948 0-1.41a6.871 6.871 0 0 0-.77-1.68l-2.69-4.69-.077-.134c-.589-1.021-.89-1.544-1.283-1.736a1.49 1.49 0 0 0-1.39 0c-.4.2-.72.76-1.35 1.87l-11.66 20.47c-.63 1.09-.92 1.64-.92 2.09a1.542 1.542 0 0 0 .7 1.2c.727.258 1.505.34 2.27.24ZM322 197h6.15a4.838 4.838 0 0 0 2.33-.25 1.513 1.513 0 0 0 .69-1.2c0-.413-.295-.91-.846-1.839l-.154-.261-3.09-5.29c-.63-1.09-.95-1.63-1.35-1.83a1.53 1.53 0 0 0-1.38 0c-.399.199-.718.747-1.345 1.821l-.005.009-3.04 5.29c-.64 1.1-.94 1.65-.94 2.1a1.493 1.493 0 0 0 .69 1.2 4.798 4.798 0 0 0 2.29.25Z" fill="#fff"></path><path d="M440 44a24.001 24.001 0 0 1-40.971 16.97 24.003 24.003 0 0 1 3.637-36.925A24.001 24.001 0 0 1 440 44Z" fill="#F3F3F3"></path><path d="M424.028 38.66a2.087 2.087 0 0 0-1.956 0l-4.56 2.688-3.096 1.716-4.488 2.688a2.087 2.087 0 0 1-1.956 0l-3.504-2.124a1.985 1.985 0 0 1-.972-1.704v-4.08a2.002 2.002 0 0 1 .972-1.704l3.504-2.04a2.087 2.087 0 0 1 1.956 0l3.504 2.124a1.963 1.963 0 0 1 .984 1.704v2.688l3.096-1.788v-2.772a2.016 2.016 0 0 0-.984-1.656L410 30.524a2.026 2.026 0 0 0-1.956 0l-6.672 3.876a1.812 1.812 0 0 0-.972 1.656v7.656a2.024 2.024 0 0 0 .972 1.716l6.6 3.828a2.087 2.087 0 0 0 1.956 0l4.488-2.604 3.096-1.8L422 42.248a2.087 2.087 0 0 1 1.956 0l3.504 2.04a1.977 1.977 0 0 1 .972 1.704v4.08a2.002 2.002 0 0 1-.972 1.704l-3.42 2.04a2.087 2.087 0 0 1-1.956 0l-3.504-2.04a1.97 1.97 0 0 1-.984-1.704v-2.604l-3.096 1.788v2.688a2.018 2.018 0 0 0 .972 1.656l6.6 3.828a2.016 2.016 0 0 0 1.956 0l6.6-3.828a1.98 1.98 0 0 0 .972-1.656v-7.74a2.033 2.033 0 0 0-.972-1.716l-6.6-3.828Z" fill="#8247E5"></path></g></svg>