<svg viewBox="0 0 96 96" color="#84fb7f" xmlns="http://www.w3.org/2000/svg" role="img" height="32" width="32" data-test="svg-modal-uphold"><path fill-rule="evenodd" clip-rule="evenodd" d="M71.037 52.864c-1.953 4.44-4.475 8.422-7.27 11.701 2.02-7.932 1.046-18.175-3.329-28.122-2.285-5.197-5.315-9.873-8.833-13.685 5.504-4.447 11.236-5.897 15.664-3.85 2.838 1.31 5.028 3.995 6.331 7.764 2.468 7.137 1.51 16.93-2.563 26.192Zm-46.143 0c-4.074-9.263-5.032-19.055-2.563-26.192 1.303-3.769 3.492-6.454 6.33-7.765 4.428-2.048 10.16-.596 15.665 3.851-3.518 3.812-6.548 8.488-8.834 13.684-4.374 9.947-5.348 20.19-3.328 28.122-2.796-3.279-5.318-7.26-7.27-11.7Zm27.2 20.07a10.07 10.07 0 0 1-4.129.913 10.074 10.074 0 0 1-4.129-.914c-8.528-3.94-10.253-19.729-3.767-34.478 2.058-4.679 4.761-8.878 7.89-12.277 3.133 3.401 5.844 7.595 7.902 12.278 6.487 14.748 4.762 30.537-3.767 34.477Zm11.581-59.912c-5.054-.21-10.562 1.95-15.709 6.258-5.146-4.309-10.655-6.473-15.709-6.262A26.937 26.937 0 0 1 47.963 8a26.938 26.938 0 0 1 15.712 5.022Zm14.672 12.082-.004-.015-.01-.028-.008-.024c-.006-.018-.014-.033-.019-.05C74.037 11.832 61.86 3 47.963 3 34.03 3 21.82 11.877 17.583 25.09c-.007.021-.008.043-.014.065-2.82 8.285-1.799 19.383 2.748 29.723 6.221 14.145 17.51 23.972 27.506 23.972h.285c9.996 0 21.285-9.827 27.506-23.972 4.556-10.359 5.574-21.482 2.733-29.774ZM56.517 86.63c-2.81.83-5.61 1.251-8.325 1.251h-.395c-2.733 0-5.55-.426-8.377-1.267a2.5 2.5 0 0 0-1.425 4.793c3.29.978 6.586 1.474 9.802 1.474h.395c3.195 0 6.472-.49 9.741-1.456a2.5 2.5 0 0 0-1.417-4.795Z" fill="currentColor"></path></svg>